<?xml version='1.0' encoding='UTF-8'?>
<svg x="0px" y="0px" viewBox="0 0 32 32" version="1.1" xmlns="http://www.w3.org/2000/svg" xmlns:xlink="http://www.w3.org/1999/xlink" xml:space="preserve" id="Move_PivotTable" style="enable-background:new 0 0 32 32">
  <style type="text/css">
	.Black{fill:#727272;}
	.Blue{fill:#1177D7;}
	.Green{fill:#039C23;}
	.st0{opacity:0.5;}
</style>
  <g class="st0">
    <path d="M10,10H6V6h4V10z M24,6H12v4h12V6z M10,12H6v12h4V12z" class="Blue" />
  </g>
  <path d="M18,26h-6H4V4h22v11.6l2,1.3V3c0-0.6-0.4-1-1-1H3C2.4,2,2,2.4,2,3v24c0,0.6,0.4,1,1,1h15V26z" class="Black" />
  <path d="M12,24h8v6l12-8l-12-8v6h-8V24z" class="Green" />
</svg>